<?xml version="1.0" standalone="no"?>
<!DOCTYPE svg PUBLIC "-//W3C//DTD SVG 20010904//EN"
 "http://www.w3.org/TR/2001/REC-SVG-20010904/DTD/svg10.dtd">
<svg version="1.0" xmlns="http://www.w3.org/2000/svg"
 width="260.000000pt" height="260.000000pt" viewBox="0 0 260.000000 260.000000"
 preserveAspectRatio="xMidYMid meet">
<metadata>
Created by potrace 1.11, written by Peter Selinger 2001-2013
</metadata>
<g transform="translate(0.000000,260.000000) scale(0.100000,-0.100000)"
fill="#000000" stroke="none">
<path d="M1262 2498 c-19 -10 -149 -85 -290 -167 -380 -219 -582 -336 -624
-359 -20 -11 -52 -31 -72 -44 l-36 -23 0 -607 0 -606 82 -48 c46 -27 92 -54
103 -60 11 -6 52 -30 92 -52 39 -23 87 -50 105 -61 18 -10 173 -99 345 -198
171 -99 318 -183 327 -186 8 -3 20 1 26 9 7 8 16 14 20 14 4 0 74 39 156 86
82 47 167 96 189 109 62 35 406 233 545 314 l125 72 0 609 0 609 -109 63 c-59
35 -125 73 -145 85 -20 13 -47 27 -60 33 -13 6 -35 19 -50 29 -14 10 -55 34
-91 53 -36 20 -127 72 -204 117 -76 45 -140 81 -141 81 -1 0 -44 25 -94 55
-158 95 -160 96 -199 73z"/>
</g>
</svg>
