<svg width="29" height="33" viewBox="0 0 29 33" xmlns="http://www.w3.org/2000/svg"><title>Group</title><g fill="none" fill-rule="evenodd"><path fill="#76C9DD" d="M14.463.488L.73 8.418l13.733 7.927 13.73-7.928-13.73-7.93"/><path fill="#25ADD0" d="M.728 24.275l13.734 7.928V16.345L.728 8.417v15.858"/><path fill="#76C9DD" d="M28.195 24.275l-13.732 7.928V16.345l13.732-7.928v15.858"/><path d="M14.462 24.053v-.355.355zm0-7.505v-.203l-.303-.175.303.175.303-.175-.303.175v.203zm5.485-3.37l.01-.005-.01.006z" fill="#5E5D5A"/><path d="M14.463 16.345l-.303-.175h.606l-.303.175m5.484-3.166c-.008-.013-.017-.024-.026-.035l.037.028-.01.006m-6.77-.79h-.375V10.5c0-.432-.13-.813-.385-1.14.07.054.14.115.206.18.37.374.555.82.555 1.337v1.514M18.79 24.08h-3.738c-.2 0-.397-.01-.59-.027v-.355c.07.002.14.003.212.003h3.74c.518 0 .963-.184 1.334-.556.37-.37.557-.814.557-1.333 0-.43-.128-.81-.383-1.137.07.054.14.114.205.18.37.372.555.817.555 1.336 0 .517-.184.964-.555 1.333-.37.37-.816.557-1.336.557m0-7.532h-4.327v-.203l.303-.175h3.646c.52 0 .965-.183 1.336-.554.37-.37.557-.816.557-1.335 0-.414-.12-.78-.358-1.1l.01-.007c.058.046.114.096.17.15.37.37.555.816.555 1.336 0 .517-.184.962-.555 1.334-.37.37-.817.554-1.336.554" fill="#62C3D9"/><path d="M18.412 19.922h-3.74c-.52 0-.96-.184-1.326-.547-.365-.365-.544-.81-.544-1.328V16.17h5.61c.52 0 .965-.183 1.336-.554.37-.37.557-.816.557-1.335 0-.518-.186-.96-.56-1.333-.37-.37-.817-.556-1.34-.556h-5.603V10.5c0-.52-.188-.964-.554-1.333-.368-.373-.813-.558-1.327-.558-.53 0-.98.182-1.348.544-.37.365-.554.815-.554 1.347v7.55c0 1.557.554 2.887 1.66 3.993 1.105 1.105 2.44 1.658 3.996 1.658h3.74c.518 0 .963-.184 1.334-.556.37-.37.557-.814.557-1.333 0-.517-.186-.962-.557-1.333-.37-.37-.816-.555-1.336-.555" fill="#FFF"/><path d="M14.462 32.203L.73 24.276V8.416l8.288 4.786v4.847c0 1.557.554 2.887 1.66 3.993.06.062.124.12.187.18.06.067.125.133.19.2.965.962 2.1 1.506 3.407 1.63v8.15m0-12.292c-.34-.033-.644-.153-.912-.357-.248-.323-.372-.7-.372-1.13V16.55h1.284v3.363" fill="#08ABCE"/><path d="M14.462 24.053c-1.308-.124-2.442-.668-3.406-1.63-.066-.067-.13-.133-.19-.2 1.015.938 2.215 1.43 3.596 1.475v.355m-.912-4.5c-.07-.053-.14-.113-.204-.178-.365-.365-.544-.81-.544-1.328V16.17h1.357l.302.175v.203h-1.284v1.876c0 .43.124.806.372 1.13" fill="#00A6C9"/><path d="M14.462 23.698c-1.38-.046-2.58-.537-3.597-1.475-.063-.06-.126-.118-.187-.18-1.106-1.106-1.66-2.436-1.66-3.994V13.2l5.14 2.968h-1.356v1.877c0 .52.18.963.544 1.328.065.065.133.125.204.178.268.204.572.324.912.358V23.7" fill="#E3F3F6"/></g></svg>