<svg width="28" height="33" viewBox="0 0 28 33" xmlns="http://www.w3.org/2000/svg"><title>Group 2</title><g fill="none" fill-rule="evenodd"><path fill="#76C9DD" d="M13.818.488L.085 8.418l13.733 7.927L27.55 8.417 13.82.487"/><path fill="#25ADD0" d="M.084 24.275l13.734 7.928V16.345L.084 8.417v15.858"/><path fill="#76C9DD" d="M27.552 24.275L13.82 32.203V16.345L27.55 8.417v15.858"/><path d="M13.818 26.152v-.48.48zm4.026-12.13l.567-.328-.566.327z" fill="#5E5D5A"/><path fill="#62C3D9" d="M17.845 14.02l.047-.448h.53v.01l-.01.112-.567.327M15.498 26.152h-1.68v-.48h1.2v-9.355h2.583l.244-2.296.567-.326-.33 3.1H15.5v9.358M15.5 13.09h-.48l.003-1.612c0-.84.08-1.29 1.29-1.29h1.612V7.44h.48v3.226H16.79c-1.206 0-1.288.45-1.288 1.29l-.003 1.135"/><path d="M15.02 25.672h-3.873v-9.355H9.212V13.09h1.935v-1.934c0-2.63 1.092-4.197 4.195-4.197h2.583v3.227h-1.613c-1.208 0-1.29.45-1.29 1.29l-.003 1.614h2.923l-.342 3.227h-2.58v9.355" fill="#FFF"/><path fill="#08ABCE" d="M13.818 32.203L.084 24.275V8.417l9.128 5.27v2.63h.48v.478h1.455v8.877h.48v.48h2.19v6.05"/><path fill="#00A6C9" d="M11.627 26.152h2.19v-.48h-2.19M9.692 16.795h1.455v-.478H9.692"/><path fill="#E3F3F6" d="M13.818 25.672h-2.67v-9.355H9.21v-2.63l4.606 2.658v9.327"/></g></svg>