<svg width="28" height="33" viewBox="0 0 28 33" xmlns="http://www.w3.org/2000/svg"><title>Group 3</title><g fill="none" fill-rule="evenodd"><path fill="#76C9DD" d="M14.173.488L.44 8.418l13.733 7.927 13.734-7.928L14.173.487"/><path fill="#25ADD0" d="M.44 24.275l13.733 7.928V16.345L.44 8.417v15.858"/><path fill="#76C9DD" d="M27.908 24.275l-13.734 7.928V16.345l13.734-7.928v15.858"/><path fill="#5E5D5A" d="M10.614 14.29l-.465-.268.464.268"/><path fill="#62C3D9" d="M10.614 14.29l-.465-.268v-1.138h.464v1.406M8.916 11.49h-.02c-.72 0-1.275-.31-1.59-.785.3.2.68.318 1.122.318h.022c1.185 0 1.923-.786 1.923-1.766-.008-.37-.11-.705-.294-.983.473.314.746.837.76 1.45 0 .98-.74 1.765-1.924 1.765"/><path fill="#5E5D5A" d="M14.173 23.104v-.465"/><path d="M15.426 13.9h-.022l.022-.033v.033m0-.033v-.984h.467v.368c-.192.21-.343.425-.467.617" fill="#62C3D9"/><path fill="#00A7CB" d="M14.172 23.104v-.465"/><path d="M22.864 23.103H19.47v-.464h2.928v-5.86c0-1.472-.367-2.574-.987-3.33.9.735 1.454 1.987 1.454 3.794v5.86m-6.97 0h-1.72v-.465h1.252v-5.71c0-.304.022-.608.112-.827.245-.61.806-1.242 1.742-1.242.64 0 1.08.253 1.354.69-.238-.146-.532-.224-.888-.224-.936 0-1.498.63-1.74 1.242-.092.22-.113.526-.113.83v5.705" fill="#62C3D9"/><path d="M8.45 11.023c1.185 0 1.923-.786 1.923-1.766-.022-1.003-.738-1.766-1.9-1.766-1.16 0-1.923.764-1.923 1.767 0 .98.737 1.766 1.878 1.766h.022zM6.753 22.64h3.396V12.42H6.752v10.22zM12.03 22.64h3.396v-5.71c0-.304.022-.608.112-.827.245-.61.806-1.242 1.742-1.242 1.232 0 1.722.937 1.722 2.31v5.47h3.396v-5.86c0-3.142-1.674-4.603-3.91-4.603-1.833 0-2.636 1.026-3.084 1.723h.022v-1.483H12.03c.042.96 0 10.222 0 10.222" fill="#FFF"/><path d="M14.172 32.203L.44 24.275V8.417l6.932 4h-.62v10.224h.468v.463h3.394V14.29l1.434.83c.002 3.05-.02 7.52-.02 7.52h.468c0 .277-.002.444-.002.463h1.678v9.1" fill="#08ABCE"/><path fill="#00A6C9" d="M10.614 23.103H7.22v-.462h2.93v-8.618l.464.27v8.81M14.172 23.103h-1.678l.002-.464h1.676v.463"/><path fill="#E3F3F6" d="M10.15 22.64H6.752V12.42h.62l2.776 1.604v8.62M14.172 22.64H12.03s.02-4.47.018-7.52l2.124 1.225v6.294"/></g></svg>